<svg width="33" height="32" viewBox="0 0 33 32" fill="none" xmlns="http://www.w3.org/2000/svg">
<rect x="0.666748" width="32" height="32" rx="16" fill="black"/>
<path d="M25.0978 21.0095C24.7818 21.7362 24.4078 22.4051 23.9745 23.0201C23.3837 23.8585 22.9001 24.4388 22.5273 24.7611C21.9495 25.2901 21.3305 25.561 20.6675 25.5764C20.1916 25.5764 19.6177 25.4416 18.9496 25.1681C18.2793 24.8959 17.6633 24.7611 17.1001 24.7611C16.5093 24.7611 15.8758 24.8959 15.1982 25.1681C14.5195 25.4416 13.9728 25.5841 13.5548 25.5982C12.9191 25.6252 12.2854 25.3466 11.6529 24.7611C11.2492 24.4106 10.7443 23.8097 10.1394 22.9585C9.49037 22.0495 8.9568 20.9954 8.53879 19.7936C8.09112 18.4956 7.8667 17.2387 7.8667 16.0218C7.8667 14.6278 8.16928 13.4256 8.77533 12.4181C9.25164 11.6088 9.8853 10.9705 10.6784 10.5018C11.4714 10.0332 12.3284 9.79441 13.2512 9.77913C13.7561 9.77913 14.4183 9.93461 15.2411 10.2402C16.0617 10.5468 16.5885 10.7023 16.8195 10.7023C16.9922 10.7023 17.5775 10.5205 18.5697 10.158C19.508 9.82188 20.2999 9.68271 20.9487 9.73753C22.7066 9.87876 24.0273 10.5686 24.9057 11.8114C23.3334 12.7597 22.5557 14.0879 22.5712 15.7918C22.5854 17.119 23.069 18.2234 24.0196 19.1003C24.4504 19.5073 24.9315 19.8219 25.4667 20.0453C25.3506 20.3804 25.2281 20.7014 25.0978 21.0095ZM21.0661 5.21611C21.0661 6.25634 20.6843 7.22761 19.9233 8.1266C19.005 9.19533 17.8943 9.81289 16.6898 9.71545C16.6744 9.59065 16.6655 9.45931 16.6655 9.32129C16.6655 8.32266 17.1022 7.25393 17.8778 6.3801C18.265 5.93766 18.7574 5.56979 19.3545 5.27632C19.9504 4.98724 20.514 4.82736 21.0441 4.79999C21.0596 4.93905 21.0661 5.07812 21.0661 5.21609V5.21611Z" fill="white"/>
</svg>
