<?xml version="1.0" standalone="no"?><!DOCTYPE svg PUBLIC "-//W3C//DTD SVG 1.1//EN" "http://www.w3.org/Graphics/SVG/1.1/DTD/svg11.dtd"><svg t="1677492531987" class="icon" viewBox="0 0 1024 1024" version="1.1" xmlns="http://www.w3.org/2000/svg" p-id="2775" width="48" height="48" xmlns:xlink="http://www.w3.org/1999/xlink"><path d="M239.616 479.914667h751.274667c17.749333 0 32.085333 14.336 32.085333 32.085333s-14.336 32.085333-32.085333 32.085333H239.616c-17.749333 0-32.085333-14.336-32.085333-32.085333 0.341333-17.749333 14.677333-32.085333 32.085333-32.085333z m0 351.573333h751.274667c17.749333 0 32.085333 14.336 32.085333 32.085333s-14.336 32.085333-32.085333 32.085334H239.616c-17.749333 0-32.085333-14.336-32.085333-32.085334 0.341333-17.749333 14.677333-32.085333 32.085333-32.085333z m0-703.488h751.274667c17.749333 0 32.085333 14.336 32.085333 32.085333s-14.336 32.085333-32.085333 32.085334H239.616c-17.749333 0-32.085333-14.336-32.085333-32.085334 0.341333-19.114667 14.677333-32.085333 32.085333-32.085333zM32.085333 479.914667h63.829334c17.749333 0 32.085333 14.336 32.085333 32.085333s-14.336 32.085333-32.085333 32.085333H32.085333c-17.749333 0-32.085333-14.336-32.085333-32.085333s14.336-32.085333 32.085333-32.085333z m0 351.573333h63.829334c17.749333 0 32.085333 14.336 32.085333 32.085333s-14.336 32.085333-32.085333 32.085334H32.085333c-17.749333 0-32.085333-14.336-32.085333-32.085334s14.336-32.085333 32.085333-32.085333z m0-703.488h63.829334c17.749333 0 32.085333 14.336 32.085333 32.085333s-14.336 32.085333-32.085333 32.085334H32.085333c-17.749333 0-32.085333-14.336-32.085333-32.085334 0-19.114667 14.336-32.085333 32.085333-32.085333z m0 0" p-id="2776" fill="#ffffff"></path></svg>