<?xml version="1.0" encoding="UTF-8"?>
<svg width="14px" height="14px" viewBox="0 0 14 14" version="1.1" xmlns="http://www.w3.org/2000/svg" xmlns:xlink="http://www.w3.org/1999/xlink">
    <title>形状备份 2</title>
    <g id="页面-1" stroke="none" stroke-width="1" fill="none" fill-rule="evenodd">
        <g id="弹窗" transform="translate(-3004.000000, -571.000000)" fill="#ADB1B8" fill-rule="nonzero">
            <g id="钱包" transform="translate(2989.000000, 552.000000)">
                <g id="复制地址" transform="translate(15.000000, 16.000000)">
                    <path d="M11.6817171,17 L6.31828287,17 C5.03651508,16.9965311 3.999437,15.959433 4,14.6816727 L4,9.31832727 C3.999437,8.04056696 5.03651508,7.00346891 6.31828287,7 L11.6817171,7 C12.9635027,7.00342622 14.0006058,8.0405493 14,9.31832727 L14,14.6817504 C14.00052,15.9594804 12.9634545,16.9965312 11.6817171,17 Z M6.28197749,8 C5.57315263,8.00190988 4.99964921,8.57544436 5,9.28204674 L5,14.7179533 C4.99969266,15.4245378 5.57317072,15.9980469 6.28197749,16 L11.7179436,16 C12.4267812,15.9980902 13.0003073,15.4245684 13,14.7179533 L13,9.28204674 C13.0002637,8.57546233 12.4267504,8.00198848 11.7179436,8 L6.28197749,8 L6.28197749,8 Z M2.63273755,13 L2.24604695,13 C1.00421174,12.9966595 -0.000562801009,11.9918642 0,10.7539069 L0,5.24609314 C-0.000562801009,4.00813581 1.00421174,3.00334049 2.24604695,3 L7.75391416,3 C8.9958386,3.003127 10.0007384,4.00804753 10,5.24609314 C10.0022681,5.4351857 9.90239407,5.61090698 9.7384953,5.70612344 C9.57459654,5.8013399 9.37199654,5.8013399 9.20809777,5.70612344 C9.04419901,5.61090698 8.94432501,5.4351857 8.94663221,5.24609314 C8.9469353,4.58870313 8.41336348,4.05513153 7.75391416,4.05337559 L2.24604695,4.05337559 C1.58662807,4.05517427 1.05310362,4.58873337 1.05340682,5.24609314 L1.05340682,10.7539069 C1.05310362,11.4112666 1.58662807,11.9448257 2.24604695,11.9466244 L2.63273755,11.9466244 C2.92453139,11.9466244 3.16107705,12.1824306 3.16107705,12.4733122 C3.16107705,12.7641938 2.92453139,13 2.63273755,13 Z" id="形状备份-2"></path>
                </g>
            </g>
        </g>
    </g>
</svg>