<svg width="33" height="32" viewBox="0 0 33 32" fill="none" xmlns="http://www.w3.org/2000/svg">
<path d="M16.3332 32C25.1698 32 32.3333 24.8365 32.3333 16C32.3333 7.16343 25.1698 0 16.3332 0C7.49669 0 0.333252 7.16343 0.333252 16C0.333252 24.8365 7.49669 32 16.3332 32Z" fill="#3E4CE5"/>
<path fill-rule="evenodd" clip-rule="evenodd" d="M18.7815 10.4023L18.7422 10.4166L18.7565 10.4023H18.7815ZM9.71178 11.9106C11.8904 10.3251 13.9097 10.4012 13.9097 10.4012L14.0725 10.5616C11.4066 11.1975 10.1979 12.3884 10.1979 12.3884C10.1979 12.3884 10.5212 12.2303 11.0857 11.989C14.6763 10.5771 18.5972 10.6793 22.227 12.4668C22.227 12.4668 21.0159 11.3532 18.514 10.6401L18.7351 10.4226C19.081 10.4237 20.9113 10.4879 22.87 11.9201C22.87 11.9201 25.0617 15.664 25.0617 20.2636C25.0486 20.2477 24.9958 20.3022 24.8987 20.4025C24.458 20.8576 23.1036 22.2566 20.3895 22.315C20.3895 22.315 19.8286 21.6803 19.4292 21.1265C21.3665 20.5702 22.0915 19.4578 22.0915 19.4578C21.631 19.7479 21.1998 19.9525 20.8182 20.1337C20.6729 20.2026 20.5348 20.2682 20.405 20.3337C19.6979 20.6449 18.9897 20.8018 18.2825 20.9585L18.2324 20.9696C15.0313 21.489 13.1414 20.7117 11.4244 20.0055L11.4241 20.0054C11.3027 19.9555 11.1821 19.9059 11.062 19.8571L10.4404 19.541C10.4404 19.541 11.1642 20.6534 13.0242 21.2097C12.5357 21.7671 12.052 22.4006 12.052 22.4006C8.74075 22.3221 7.5332 20.2541 7.5332 20.2541C7.5332 15.6473 9.71178 11.9106 9.71178 11.9106ZM18.9951 18.8242C19.8401 18.8242 20.5283 18.1111 20.5283 17.2316C20.5283 16.358 19.8437 15.6449 18.9951 15.6449V15.6485C18.1536 15.6485 17.4643 16.3592 17.4619 17.2387C17.4619 18.1111 18.15 18.8242 18.9951 18.8242ZM15.0396 17.2316C15.0396 18.1111 14.3514 18.8242 13.5064 18.8242C12.6613 18.8242 11.9732 18.1111 11.9732 17.2387C11.9732 16.3592 12.6613 15.6485 13.5064 15.6485L13.5111 15.6449C14.3562 15.6449 15.0396 16.358 15.0396 17.2316Z" fill="white"/>
</svg>
