<?xml version="1.0" encoding="UTF-8"?>
<svg width="30px" height="30px" viewBox="0 0 30 30" version="1.1" xmlns="http://www.w3.org/2000/svg" xmlns:xlink="http://www.w3.org/1999/xlink">
    <title>编组 26</title>
    <g id="页面-1" stroke="none" stroke-width="1" fill="none" fill-rule="evenodd">
        <g id="h5-首页" transform="translate(-145.000000, -3320.000000)" fill="#F8F8F8" fill-rule="nonzero">
            <g id="编组-11" transform="translate(10.000000, 3019.000000)">
                <g id="编组-34" transform="translate(27.000000, 301.000000)">
                    <g id="编组-26" transform="translate(108.000000, 0.000000)">
                        <path d="M21,10 C19.0025421,8.82130245 17.0901779,9.00602809 17,9 L17,9 C19.2616366,9.83729347 20.483082,11.0512048 20,11 C18.5707179,9.83729347 16.1401648,9.65256783 15,10 L15,10 C13.610909,9.65256783 11.1803559,9.92965629 9,11 C9.35435657,11.0512048 10.575802,9.83729347 13,9 L13,9 C12.7472607,9.00602809 10.8348965,8.91366527 9,10 C8.92253241,10.4970279 6.83743861,14.4950185 7,19 C7.01016828,18.8624605 8.31797859,21 11,21 L12,20 C12.0440042,19.7860887 10.3907346,19.2319117 10,18 C9.6998159,18.1103632 11.6985449,19.601363 15,20 L15,20 C18.3116234,19.5090002 20.3103524,18.1103632 20,18 C19.6194337,19.2319117 17.9661641,19.7860887 18,20 L19,21 C21.6921897,20.9076372 23,18.8624605 23,19 C23,14.4950185 20.9149062,10.4970279 21,10 Z M13,17 C11.6637168,17 11,16.3 11,15 C11,14.7125 11.6504425,14 13,14 C13.3362832,14 14,14.7 14,15 C14,16.3 13.3362832,17 13,17 Z M17,17 C16.6619795,17 16,16.3 16,15 C16,14.7125 16.6487399,14 17,14 C18.3301678,14 18.9921473,14.7 19,15 C19.0848244,16.2875 18.3434074,17 17,17 Z" id="形状"></path>
                    </g>
                </g>
            </g>
        </g>
    </g>
</svg>