<?xml version="1.0" encoding="UTF-8"?>
<svg width="24px" height="24px" viewBox="0 0 24 24" version="1.1" xmlns="http://www.w3.org/2000/svg" xmlns:xlink="http://www.w3.org/1999/xlink">
    <title>编组 32</title>
    <g id="页面-1" stroke="none" stroke-width="1" fill="none" fill-rule="evenodd">
        <g id="首页-pc-改版" transform="translate(-329.000000, -3559.000000)" fill="#17181F" fill-rule="nonzero">
            <g id="底部" transform="translate(0.000000, 3415.000000)">
                <g id="左侧" transform="translate(241.000000, 62.000000)">
                    <g id="编组-32" transform="translate(88.000000, 82.000000)">
                        <path d="M16.8592951,8.24752325 C15.2294393,6.85108538 13.5995835,7.00502341 13.5995835,7.00502341 L13.4523707,7.15896144 C15.4502584,7.69774456 16.4912631,8.70933735 16.4912631,8.70933735 C14.8614073,7.69774456 12.7899132,7.54380653 11.9697277,7.54380653 L11.5280893,7.54380653 C10.6342974,7.54380653 8.5628033,7.77471358 7.00655389,8.70933735 C7.00655389,8.70933735 8.04755856,7.69774456 10.0454463,7.15896144 L9.89823353,7.00502341 C9.89823353,7.00502341 8.26837774,6.92805439 6.63852194,8.24752325 C6.63852194,8.24752325 4.86145336,11.5791821 5.00866614,15.218717 C5.00866614,15.218717 6.12327721,17 8.5628033,17 L9.29886721,15.9884072 C9.29886721,15.9884072 7.88983058,15.5265931 7.30097946,14.5919693 C7.30097946,14.5919693 9.00444164,15.8344692 11.6016957,15.9114382 L12.0433341,15.9114382 C14.6405881,15.7575002 16.3440503,14.5919693 16.3440503,14.5919693 C15.7551992,15.5265931 14.3461626,15.9884072 14.3461626,15.9884072 L15.0822265,17 C17.5217526,16.923031 18.6363636,15.218717 18.6363636,15.218717 C18.6363636,11.5791821 16.8592951,8.24752325 16.8592951,8.24752325 Z M9.6875,14.2727273 C8.97475865,14.2727273 8.40909091,13.6363636 8.40909091,12.9090909 C8.40909091,12.1931818 8.96344529,11.5454545 9.6875,11.5454545 C10.4002414,11.5454545 10.9659091,12.1818182 10.9659091,12.9090909 C10.9659091,13.6363636 10.4002414,14.2727273 9.6875,14.2727273 Z M13.9455173,14.2727273 C13.2346416,14.2727273 12.6704545,13.6363636 12.6704545,12.9090909 C12.6704545,12.1931818 13.2233579,11.5454545 13.9455173,11.5454545 C14.656393,11.5454545 15.2205801,12.1818182 15.2205801,12.9090909 C15.2995662,13.625 14.6676767,14.2727273 13.9455173,14.2727273 Z" id="形状备份-4"></path>
                    </g>
                </g>
            </g>
        </g>
    </g>
</svg>