<?xml version="1.0" standalone="no"?><!DOCTYPE svg PUBLIC "-//W3C//DTD SVG 1.1//EN" "http://www.w3.org/Graphics/SVG/1.1/DTD/svg11.dtd"><svg t="1717438309856" class="icon" viewBox="0 0 1024 1024" version="1.1" xmlns="http://www.w3.org/2000/svg" p-id="9595" xmlns:xlink="http://www.w3.org/1999/xlink" width="100" height="100"><path d="M704.67 662.59L534.01 833.25l-0.55 0.55-0.26 0.3-0.3 0.26-0.34 0.3-0.26 0.21-0.38 0.34-0.43 0.34-0.9 0.64-0.6 0.47-0.6 0.43-0.64 0.43h-0.26l-0.38 0.38h-0.64l-0.38 0.47h-0.26l-0.51 0.55c-12.76 6.8-28.49 4.21-38.4-6.31L318.11 662.59c-12.27-12.72-11.91-32.98 0.81-45.25 12.41-11.97 32.07-11.96 44.46 0.02l116.01 116.01V213.31c0-17.67 14.33-32 32-32s32 14.33 32 32v520.06l116.05-116.01c12.05-12.93 32.3-13.64 45.23-1.6 12.93 12.05 13.64 32.3 1.6 45.23-0.51 0.55-1.05 1.08-1.6 1.6z" p-id="9596" fill="#71757a"></path></svg>