<?xml version="1.0" standalone="no"?><!DOCTYPE svg PUBLIC "-//W3C//DTD SVG 1.1//EN" "http://www.w3.org/Graphics/SVG/1.1/DTD/svg11.dtd"><svg t="1717440728815" class="icon" viewBox="0 0 1024 1024" version="1.1" xmlns="http://www.w3.org/2000/svg" p-id="23370" xmlns:xlink="http://www.w3.org/1999/xlink" width="100" height="100"><path d="M705.28 406.65c-12.49 12.48-32.73 12.48-45.23 0L544 290.59V810.7c-0.02 17.67-14.36 31.98-32.04 31.96-17.64-0.02-31.94-14.32-31.96-31.96V290.68L363.99 406.65c-12.5 12.5-32.77 12.5-45.27 0s-12.5-32.77 0-45.27l170.67-170.67c12.47-12.49 32.71-12.5 45.19-0.03l0.03 0.03 170.67 170.67c12.5 12.49 12.51 32.75 0.01 45.25 0 0.01 0 0.01-0.01 0.02z" p-id="23371" fill="#71757a"></path></svg>