<svg width="32" height="32" viewBox="0 0 32 32" fill="none" xmlns="http://www.w3.org/2000/svg">
<rect width="32" height="32" rx="16" fill="white"/>
<path d="M18.2856 18.3717C17.1577 19.2755 16.4539 19.7238 15.7518 19.7238C15.0777 19.7238 14.3968 19.3038 13.3439 18.4834L7.07642 23.9988H24.7268L18.3572 18.318C18.3339 18.3351 18.3077 18.3563 18.2856 18.3717Z" fill="black"/>
<path d="M10.8517 16.5554C9.36375 15.4079 7.6475 14.08 6 12.7775V23.1746C6 23.2079 6.01583 23.2358 6.01917 23.2666L12.3379 17.7058C11.88 17.3483 11.3887 16.9704 10.8517 16.5554Z" fill="black"/>
<path d="M25.9512 23.4163C25.9766 23.3409 26.0004 23.2617 26.0004 23.1746V12.3363C24.0225 13.8746 21.16 16.1042 19.3521 17.5309L25.9512 23.4163Z" fill="black"/>
<path d="M24.75 9H7.25C6.79375 9 6 9.79458 6 10.25V11.235C7.84333 12.7025 9.84542 14.2471 11.5417 15.5554C12.4771 16.2775 13.3154 16.9262 13.9771 17.4429C15.7604 18.8417 15.7604 18.8417 17.5808 17.3863C19.2271 16.0704 23.6562 12.6237 26 10.8008V10.2512C26 9.79333 25.2067 9 24.75 9Z" fill="black"/>
</svg>
