<svg width="33" height="32" viewBox="0 0 33 32" fill="none" xmlns="http://www.w3.org/2000/svg">
<rect x="0.666748" width="32" height="32" rx="16" fill="white"/>
<path fill-rule="evenodd" clip-rule="evenodd" d="M26.5387 16.2363C26.5387 15.4989 26.4725 14.7898 26.3496 14.1091H16.5547V18.132H22.1518C21.9107 19.432 21.178 20.5334 20.0765 21.2709V23.8803H23.4376C25.4041 22.0698 26.5387 19.4036 26.5387 16.2363Z" fill="#4285F4"/>
<path fill-rule="evenodd" clip-rule="evenodd" d="M16.5548 26.4C19.3628 26.4 21.717 25.4687 23.4377 23.8803L20.0766 21.2709C19.1453 21.8949 17.9541 22.2636 16.5548 22.2636C13.8461 22.2636 11.5533 20.4341 10.7355 17.976H7.26099V20.6705C8.97226 24.0694 12.4893 26.4 16.5548 26.4Z" fill="#34A853"/>
<path fill-rule="evenodd" clip-rule="evenodd" d="M10.7355 17.976C10.5275 17.352 10.4093 16.6854 10.4093 16C10.4093 15.3145 10.5275 14.648 10.7355 14.024V11.3294H7.26097C6.5566 12.7334 6.15479 14.3218 6.15479 16C6.15479 17.6781 6.5566 19.2665 7.26097 20.6705L10.7355 17.976Z" fill="#FBBC05"/>
<path fill-rule="evenodd" clip-rule="evenodd" d="M16.5548 9.73634C18.0817 9.73634 19.4526 10.2611 20.5304 11.2916L23.5133 8.3087C21.7123 6.63052 19.3581 5.59998 16.5548 5.59998C12.4893 5.59998 8.97226 7.93052 7.26099 11.3294L10.7355 14.024C11.5533 11.5658 13.8461 9.73634 16.5548 9.73634Z" fill="#EA4335"/>
</svg>
