<?xml version="1.0" encoding="UTF-8"?>
<svg width="12px" height="12px" viewBox="0 0 12 12" version="1.1" xmlns="http://www.w3.org/2000/svg" xmlns:xlink="http://www.w3.org/1999/xlink">
    <title>形状结合</title>
    <g id="页面-1" stroke="none" stroke-width="1" fill="none" fill-rule="evenodd">
        <g id="交易（当前持仓）" transform="translate(-1331.000000, -343.000000)" fill="#F7A600" fill-rule="nonzero">
            <g id="下单器" transform="translate(1284.000000, 66.000000)">
                <g id="形状结合" transform="translate(16.000000, 272.000000)">
                    <path d="M37,5 C40.3073242,5 43,7.69267583 43,11 C43,14.3073242 40.3073242,17 37,17 C33.6926758,17 31,14.3073242 31,11 C31,7.69267583 33.6926758,5 37,5 Z M37,5.87804945 C34.1902418,5.87804945 31.8780494,8.19024176 31.8780494,11 C31.8780494,13.8097582 34.1902418,16.1219506 37,16.1219506 C39.8097582,16.1219506 42.1219506,13.8097582 42.1219506,11 C42.1219506,8.19024176 39.8097582,5.87804945 37,5.87804945 Z M37,9.9756044 C37.2341511,9.9756044 37.4390247,10.1804918 37.4390247,10.4146291 L37.4390247,10.4146291 L37.4390247,13.6341483 C37.4390247,13.8682994 37.2341511,14.0731731 37,14.0731731 C36.7658489,14.0731731 36.5609753,13.8682994 36.5609753,13.6341483 L36.5609753,13.6341483 L36.5609753,10.4146291 C36.5609753,10.1804918 36.7658489,9.9756044 37,9.9756044 Z M37,7.78048078 C37.3232914,7.78048078 37.5853709,8.04256024 37.5853709,8.36585165 C37.5853709,8.57498453 37.4737998,8.76823128 37.2926854,8.87279772 C37.1115711,8.97736416 36.8884289,8.97736416 36.7073146,8.87279772 C36.5262002,8.76823128 36.4146291,8.57498453 36.4146291,8.36585165 C36.4146291,8.04256024 36.6767086,7.78048078 37,7.78048078 Z"></path>
                </g>
            </g>
        </g>
    </g>
</svg>