<?xml version="1.0" encoding="UTF-8"?>
<svg width="15px" height="15px" viewBox="0 0 15 15" version="1.1" xmlns="http://www.w3.org/2000/svg" xmlns:xlink="http://www.w3.org/1999/xlink">
    <title>形状</title>
    <g id="页面-1" stroke="none" stroke-width="1" fill="none" fill-rule="evenodd">
        <g id="弹窗" transform="translate(-3004.000000, -691.000000)" fill="#ADB1B8" fill-rule="nonzero">
            <g id="钱包" transform="translate(2989.000000, 552.000000)">
                <g id="编组-7" transform="translate(15.000000, 16.000000)">
                    <g id="退出登录" transform="translate(0.104734, 120.000000)">
                        <path d="M13.157402,13.8526528 L13.157402,15.7269176 C13.1557816,16.8258776 12.2650896,17.7162444 11.166129,17.7174634 L1.99052993,17.7174634 C0.8916901,17.7162435 0.00121110309,16.8257575 8.8817842e-16,15.7269176 L8.8817842e-16,4.99200024 C0.000818260202,3.89276188 0.891292474,3.00162991 1.99052993,3 L11.1668721,3 C12.2662338,3.00162042 13.1569261,3.89263805 13.1581451,4.99200024 L13.1581451,6.34085876 C13.1558503,6.64403655 12.9094281,6.8886006 12.6062416,6.8886006 C12.3030551,6.8886006 12.0566329,6.64403655 12.0543381,6.34085876 L12.0543381,4.99200024 C12.0543381,4.50191297 11.6562321,4.10380698 11.1668721,4.10380698 L1.99052993,4.10380698 C1.50116991,4.10380698 1.10380698,4.50265603 1.10380698,4.99200024 L1.10380698,15.7269176 C1.10380698,16.2155504 1.50189716,16.6136564 1.99052993,16.6136564 L11.1668721,16.6136564 C11.6562321,16.6136564 12.0543381,16.2155504 12.0543381,15.7269176 L12.0543381,13.8526686 C12.0654546,13.5561048 12.309098,13.3214232 12.6058701,13.3214232 C12.9026421,13.3214232 13.1462855,13.5561048 13.157402,13.8526686 L13.157402,13.8526528 Z M13.9999999,10.3587238 C14.0000974,10.212351 13.9418289,10.0719774 13.838092,9.96871239 L11.0601561,7.19153541 C10.9206886,7.05206784 10.7174102,6.99759955 10.5268939,7.04864822 C10.3363777,7.09969688 10.1875676,7.248507 10.1365189,7.43902323 C10.0854702,7.62953947 10.1399385,7.83281786 10.2794061,7.97228542 L12.1153955,9.80756334 L6.52058427,9.80756334 C6.21740648,9.80985815 5.97284243,10.0562804 5.97284243,10.3594668 C5.97284243,10.6626533 6.21740648,10.9090755 6.52058427,10.9113703 L12.1161543,10.9113703 L10.280165,12.7473597 C10.0712032,12.9638651 10.0741688,13.3078514 10.2868324,13.5207219 C10.4994959,13.7335923 10.8434792,13.7368925 11.0601877,13.5281413 L13.8381078,10.7502055 C13.9416573,10.6462142 13.9998571,10.5054775 13.9999999,10.3587238 L13.9999999,10.3587238 Z" id="形状"></path>
                    </g>
                </g>
            </g>
        </g>
    </g>
</svg>