<?xml version="1.0" encoding="UTF-8"?>
<svg width="124px" height="24px" viewBox="0 0 124 24" version="1.1" xmlns="http://www.w3.org/2000/svg" xmlns:xlink="http://www.w3.org/1999/xlink">
    <title>编组</title>
    <g id="页面-1" stroke="none" stroke-width="1" fill="none" fill-rule="evenodd">
        <g id="首页-改-1备份" transform="translate(-14.000000, -19.000000)" fill="#F7A600">
            <g id="编组" transform="translate(14.000000, 19.000000)">
                <g id="编组-2">
                    <polygon id="路径备份-2" opacity="0.5" points="18.431028 1.10671073 14.1749917 6.67188385 9.90076672 1.10671073 0.885368585 1.10671073 9.66431435 12.5706884 0.939934516 23.9791538 8.90961327 23.9791538 26.4067696 1.10671073"></polygon>
                    <polygon id="路径" points="17.5456594 0 13.2896231 5.56517312 9.01539814 0 8.95191436e-14 0 8.77894576 11.4639777 0.0545659318 22.8724431 8.02424468 22.8724431 25.521401 0"></polygon>
                    <path d="M21.8254551,18.0350223 L22.3274551,18.6910223 L18.2944551,23.9990223 L17.37768,24 L17.3454551,23.9580223 L21.8254551,18.0350223 Z M25.7864551,23.2070223 L26.3930781,24 L25.1984551,23.9990223 L25.7864551,23.2070223 Z M22.8384551,19.3590223 L23.3684551,20.0510223 L20.3804551,23.9990223 L19.3114551,23.9990223 L22.8384551,19.3590223 Z M23.8824551,20.7220223 L24.3554551,21.3390223 L22.3244551,23.9990223 L21.4004551,23.9990223 L23.8824551,20.7220223 Z M24.8694551,22.0110223 L25.3314551,22.6140223 L24.3024551,23.9990223 L23.3514551,23.9990223 L24.8694551,22.0110223 Z M20.8044551,16.7030223 L21.3144551,17.3680223 L16.8344551,23.2920223 L16.3154551,22.6170223 L20.8044551,16.7030223 Z M19.7764551,15.3610223 L20.2934551,16.0350223 L15.8034551,21.9500223 L15.2724551,21.2580223 L19.7764551,15.3610223 Z M18.7554551,14.0270223 L19.2654551,14.6930223 L14.7594551,20.5910223 L14.2684551,19.9510223 L18.7554551,14.0270223 Z" id="形状结合"></path>
                </g>
                <path d="M47.5082873,4.13259669 L44.1712707,4.13259669 L41.2762431,10.4751381 L38.3370166,4.13259669 L35,4.13259669 L39.7292818,13.4143646 L39.7292818,19.8674033 L42.7790055,19.8674033 L42.7790055,13.4143646 L47.5082873,4.13259669 Z M59.7734807,6.87292818 L59.7734807,4.13259669 L49.4088398,4.13259669 L49.4088398,19.8674033 L52.480663,19.8674033 L52.480663,13.480663 L58.6906077,13.480663 L58.6906077,10.7403315 L52.480663,10.7403315 L52.480663,6.87292818 L59.7734807,6.87292818 Z M73.8287293,19.8674033 L68.9226519,11.801105 L73.4972376,4.13259669 L70.0276243,4.13259669 L67.2651934,9.21546961 L64.5248619,4.13259669 L61.0331492,4.13259669 L65.6077348,11.801105 L60.7237569,19.8674033 L64.2375691,19.8674033 L67.2651934,14.3867403 L70.3149171,19.8674033 L73.8287293,19.8674033 Z M78.7348066,19.8674033 L78.7348066,16.5966851 L75.441989,16.5966851 L75.441989,19.8674033 L78.7348066,19.8674033 Z M93.121547,15.0276243 L90.0055249,15.0276243 C89.6740331,16.3756906 88.8342541,17.2596685 87.3535912,17.2596685 C86.5138122,17.2596685 85.8508287,16.9944751 85.3867403,16.441989 C84.7458564,15.7569061 84.6132597,15.0497238 84.6132597,12 C84.6132597,8.95027624 84.7458564,8.24309392 85.3867403,7.55801105 C85.8508287,7.00552486 86.5138122,6.74033149 87.3535912,6.74033149 C88.8342541,6.74033149 89.6740331,7.62430939 90.0055249,8.97237569 L93.121547,8.97237569 C92.5911602,5.7679558 90.359116,4 87.3314917,4 C85.6519337,4 84.2375691,4.57458564 83.0883978,5.72375691 C82.4033149,6.40883978 81.9834254,7.18232044 81.8066298,8.08839779 C81.6298343,8.97237569 81.5414365,10.2762431 81.5414365,12 C81.5414365,13.7237569 81.6298343,15.0276243 81.8066298,15.9116022 C81.9834254,16.7955801 82.4033149,17.5911602 83.0883978,18.2762431 C84.2375691,19.4254144 85.6519337,20 87.3314917,20 C90.3370166,20 92.5911602,18.2320442 93.121547,15.0276243 Z M106.160237,12 C106.160237,9.28176796 106.18232,7.31491713 104.59116,5.72375691 C103.486188,4.61878453 102.138122,4 100.348066,4 C98.558011,4 97.1878453,4.61878453 96.0828729,5.72375691 C94.4917127,7.31491713 94.5359116,9.28176796 94.5359116,12 C94.5359116,14.718232 94.4917127,16.6850829 96.0828729,18.2762431 C97.1878453,19.3812155 98.558011,20 100.348066,20 C102.138122,20 103.486188,19.3812155 104.59116,18.2762431 C106.18232,16.6850829 106.160237,14.718232 106.160237,12 Z M103.088398,12 C103.088398,15.0276243 102.911602,15.7569061 102.314917,16.4198895 C101.872928,16.9281768 101.187845,17.2596685 100.348066,17.2596685 C99.5082873,17.2596685 98.801105,16.9281768 98.359116,16.4198895 C97.7624309,15.7569061 97.6077348,15.0276243 97.6077348,12 C97.6077348,8.97237569 97.7624309,8.24309392 98.359116,7.5801105 C98.801105,7.0718232 99.5082873,6.74033149 100.348066,6.74033149 C101.187845,6.74033149 101.872928,7.0718232 102.314917,7.5801105 C102.911602,8.24309392 103.088398,8.97237569 103.088398,12 Z M123.552486,19.8674033 L123.552486,4.13259669 L120.524862,4.13259669 L116.436464,12.640884 L112.325967,4.13259669 L109.298343,4.13259669 L109.298343,19.8674033 L112.370166,19.8674033 L112.370166,10.6961326 L115.39779,16.6629834 L117.475138,16.6629834 L120.480663,10.6961326 L120.480663,19.8674033 L123.552486,19.8674033 Z" id="形状结合" fill-rule="nonzero"></path>
            </g>
        </g>
    </g>
</svg>