<?xml version="1.0" encoding="UTF-8"?>
<svg width="30px" height="30px" viewBox="0 0 30 30" version="1.1" xmlns="http://www.w3.org/2000/svg" xmlns:xlink="http://www.w3.org/1999/xlink">
    <title>编组 28</title>
    <g id="页面-1" stroke="none" stroke-width="1" fill="none" fill-rule="evenodd">
        <g id="h5-首页" transform="translate(-199.000000, -3320.000000)" fill="#F8F8F8" fill-rule="nonzero">
            <g id="编组-11" transform="translate(10.000000, 3019.000000)">
                <g id="编组-34" transform="translate(27.000000, 301.000000)">
                    <g id="编组-28" transform="translate(162.000000, 0.000000)">
                        <path d="M23,9.25707954 L21.8046875,10.41246 C21.6992188,10.4922433 21.6494141,10.6222605 21.6699219,10.7493228 L21.6699219,19.2506772 C21.6494141,19.3806944 21.6992188,19.5107116 21.8046875,19.58754 L22.9765625,20.7429205 L22.9765625,21 L17.09375,21 L17.09375,20.7547402 L18.3037109,19.5698104 C18.4238281,19.448658 18.4238281,19.4131987 18.4238281,19.2329475 L18.4238281,12.3538537 L15.0546875,20.9704506 L14.6005859,20.9704506 L10.6806641,12.3538537 L10.6806641,18.130756 C10.6455078,18.3730608 10.7304688,18.6183206 10.9003906,18.7926619 L12.4765625,20.716326 L12.4765625,20.9734056 L8,20.9734056 L8,20.716326 L9.57617188,18.7926619 C9.74609375,18.6183206 9.81933594,18.3701059 9.78125,18.130756 L9.78125,11.4525979 C9.80175781,11.2664368 9.73144531,11.0861857 9.59082031,10.9591234 L8.19042969,9.25707954 L8.19042969,9 L12.5410156,9 L15.8984375,16.4316671 L18.8544922,9.00590987 L23,9.00590987 L23,9.25707954 Z" id="路径"></path>
                    </g>
                </g>
            </g>
        </g>
    </g>
</svg>