<?xml version="1.0" encoding="UTF-8"?>
<svg width="24px" height="24px" viewBox="0 0 24 24" version="1.1" xmlns="http://www.w3.org/2000/svg" xmlns:xlink="http://www.w3.org/1999/xlink">
    <title>编组 33</title>
    <g id="页面-1" stroke="none" stroke-width="1" fill="none" fill-rule="evenodd">
        <g id="首页-pc-改版" transform="translate(-373.000000, -3559.000000)" fill="#17181F" fill-rule="nonzero">
            <g id="底部" transform="translate(0.000000, 3415.000000)">
                <g id="左侧" transform="translate(241.000000, 62.000000)">
                    <g id="编组-33" transform="translate(132.000000, 82.000000)">
                        <path d="M19,7.21423295 L17.9640625,8.17704999 C17.8726562,8.24353607 17.8294922,8.35188377 17.8472656,8.45776902 L17.8472656,15.542231 C17.8294922,15.6505787 17.8726562,15.7589264 17.9640625,15.82295 L18.9796875,16.7857671 L18.9796875,17 L13.88125,17 L13.88125,16.7956168 L14.9298828,15.8081753 C15.0339844,15.707215 15.0339844,15.6776656 15.0339844,15.5274563 L15.0339844,9.79487811 L12.1140625,16.9753755 L11.7205078,16.9753755 L8.32324219,9.79487811 L8.32324219,14.6089633 C8.29277344,14.810884 8.36640625,15.0152672 8.51367188,15.1605516 L9.8796875,16.763605 L9.8796875,16.977838 L6,16.977838 L6,16.763605 L7.36601563,15.1605516 C7.51328125,15.0152672 7.57675781,14.8084216 7.54375,14.6089633 L7.54375,9.04383157 C7.56152344,8.88869737 7.50058594,8.73848806 7.37871094,8.63260281 L6.16503906,7.21423295 L6.16503906,7 L9.93554688,7 L12.8453125,13.1930559 L15.4072266,7.0049249 L19,7.0049249 L19,7.21423295 Z" id="路径"></path>
                    </g>
                </g>
            </g>
        </g>
    </g>
</svg>