<?xml version="1.0" encoding="UTF-8"?>
<svg width="26px" height="24px" viewBox="0 0 26 24" version="1.1" xmlns="http://www.w3.org/2000/svg" xmlns:xlink="http://www.w3.org/1999/xlink">
    <title>编组</title>
    <g id="页面-1" stroke="none" stroke-width="1" fill="none" fill-rule="evenodd" stroke-linecap="round" stroke-linejoin="round">
        <g id="弹窗" transform="translate(-76.000000, -143.000000)" fill-rule="nonzero" stroke-width="0.5">
            <g id="连接钱包" transform="translate(40.000000, 68.000000)">
                <g id="MetaMask" transform="translate(20.000000, 60.000000)">
                    <g id="编组" transform="translate(17.000000, 16.000000)">
                        <polygon id="路径" stroke="#E17726" fill="#E17726" points="22.8132296 3.89068321e-16 13.4300684 6.90083619 15.1676454 2.83408421"></polygon>
                        <polygon id="路径" stroke="#E27625" fill="#E27625" points="1.186787 0 10.4796131 6.96489691 8.81843233 2.83408421"></polygon>
                        <polygon id="路径" stroke="#E27625" fill="#E27625" points="19.4369877 15.9986152 16.941756 19.7901304 22.2832743 21.2512966 23.8140907 16.0817575"></polygon>
                        <polygon id="路径" stroke="#E27625" fill="#E27625" points="0.194601879 16.0817575 1.71501637 21.2512966 7.04777363 19.7901304 4.56297631 15.9986152"></polygon>
                        <polygon id="路径" stroke="#E27625" fill="#E27625" points="6.76106861 9.59639785 5.27714122 11.8228409 10.5630182 12.0651712 10.3891991 6.40742319"></polygon>
                        <polygon id="路径" stroke="#E27625" fill="#E27625" points="17.2389304 9.59639785 13.5569283 6.33991062 13.4369896 12.0651712 18.7228753 11.8262577"></polygon>
                        <polygon id="路径" stroke="#E27625" fill="#E27625" points="7.04777363 19.7901304 10.2467446 18.2527431 7.49260666 16.1181158"></polygon>
                        <polygon id="路径" stroke="#E27625" fill="#E27625" points="13.751511 18.2527431 16.941756 19.7901304 16.5073836 16.1181158"></polygon>
                        <polygon id="路径" stroke="#D5BFB2" fill="#D5BFB2" points="16.941756 19.7901304 13.751511 18.2527431 14.0121519 20.3129892 13.9843794 21.17858"></polygon>
                        <polygon id="路径" stroke="#D5BFB2" fill="#D5BFB2" points="7.04777363 19.7901304 10.0191328 21.1872534 9.99994614 20.3216627 10.250249 18.2614166"></polygon>
                        <polygon id="路径" stroke="#233447" fill="#233447" points="10.071261 14.7573511 7.41267094 13.9834009 9.287586 13.1281482"></polygon>
                        <polygon id="路径" stroke="#233447" fill="#233447" points="13.9287468 14.7573511 14.7106696 13.1281482 16.5942931 13.9834009"></polygon>
                        <polygon id="路径" stroke="#CC6228" fill="#CC6228" points="7.04778239 19.7901304 7.51172325 15.9986152 4.55777225 16.0817575"></polygon>
                        <polygon id="路径" stroke="#CC6228" fill="#CC6228" points="16.4882845 15.9986152 16.941756 19.7901304 19.4369877 16.0817575"></polygon>
                        <polygon id="路径" stroke="#CC6228" fill="#CC6228" points="18.7228753 11.8228409 13.4369896 12.0651712 13.9287468 14.7573511 14.7106696 13.1282358 16.5942931 13.9938265"></polygon>
                        <polygon id="路径" stroke="#CC6228" fill="#CC6228" points="7.4126797 13.9851531 9.28583379 13.1195624 10.0660044 14.7486777 10.5630182 12.0651712 5.27714122 11.8228409"></polygon>
                        <polygon id="路径" stroke="#E27525" fill="#E27525" points="5.27714122 11.8228409 7.49260666 16.1181158 7.4126797 13.9851531"></polygon>
                        <polygon id="路径" stroke="#E27525" fill="#E27525" points="16.5907887 13.9851531 16.5073836 16.1181158 18.7228753 11.8228409"></polygon>
                        <polygon id="路径" stroke="#E27525" fill="#E27525" points="10.5630182 12.0651712 10.071261 14.7573511 10.6915426 17.9393607 10.8305803 13.7444873"></polygon>
                        <polygon id="路径" stroke="#E27525" fill="#E27525" points="13.4369896 12.0651712 13.1781009 13.7393183 13.306713 17.9428652 13.9287468 14.7573511"></polygon>
                        <polygon id="路径" stroke="#F5841F" fill="#F5841F" points="13.9287468 14.7573511 13.306713 17.9393607 13.751511 18.2527431 16.5073836 16.1181158 16.5907887 13.9834009"></polygon>
                        <polygon id="路径" stroke="#F5841F" fill="#F5841F" points="7.41267094 13.9834009 7.48739384 16.1181158 10.241488 18.2527431 10.6863736 17.9393607 10.071261 14.7573511"></polygon>
                        <polygon id="路径" stroke="#C0AC9D" fill="#C0AC9D" points="13.9843794 21.1872534 14.0121519 20.3215751 13.77061 20.120772 10.2293978 20.120772 9.99652934 20.3215751 10.0156284 21.1872534 7.04777363 19.7901304 8.09034612 20.6349574 10.1928642 22.0806166 13.7983825 22.0806166 15.9131223 20.6349574 16.941756 19.7901304"></polygon>
                        <polygon id="路径" stroke="#161616" fill="#161616" points="13.751511 18.2527431 13.306713 17.9394484 10.6915426 17.9394484 10.2467446 18.2527431 9.99652934 20.3129892 10.2293978 20.1121862 13.77061 20.1121862 14.0156563 20.3129892"></polygon>
                        <polygon id="路径" stroke="#763E1A" fill="#763E1A" points="23.211156 7.35096965 24 3.54217772 22.8132296 0 13.751511 6.67057854 17.2389304 9.59639785 22.1633356 11.0264624 23.2476019 9.76609919 22.7749438 9.4198629 23.5255897 8.73948055 22.9521796 8.29796795 23.7028255 7.72665179"></polygon>
                        <polygon id="路径" stroke="#763E1A" fill="#763E1A" points="-7.78136641e-16 3.54217772 0.797567296 7.35096965 0.28844488 7.73704239 1.04951903 8.30835855 0.472632598 8.74114515 1.22502018 9.42152749 0.750651928 9.76785139 1.8366634 11.0264624 6.76107737 9.60165447 10.2467446 6.67577384 1.18679576 0"></polygon>
                        <polygon id="路径" stroke="#F5841F" fill="#F5841F" points="22.1633356 11.0264624 17.2389304 9.59639785 18.7228753 11.8228409 16.5073836 16.1181158 19.4369877 16.0817575 23.8140907 16.0817575"></polygon>
                        <polygon id="路径" stroke="#F5841F" fill="#F5841F" points="6.76106861 9.59639785 1.83665464 11.0264624 0.194601879 16.0817575 4.56297631 16.0817575 7.49260666 16.1181158 5.27714122 11.8228409"></polygon>
                        <polygon id="路径" stroke="#F5841F" fill="#F5841F" points="13.4369896 12.0651712 13.751511 6.67403039 15.1798233 2.83407545 8.81843233 2.83407545 10.2467446 6.67056978 10.5630182 12.0651712 10.6828692 13.7584174 10.6828692 17.9428652 13.306713 17.9428652 13.3205554 13.754913"></polygon>
                    </g>
                </g>
            </g>
        </g>
    </g>
</svg>