<?xml version="1.0" encoding="UTF-8"?>
<svg width="28px" height="28px" viewBox="0 0 28 28" version="1.1" xmlns="http://www.w3.org/2000/svg" xmlns:xlink="http://www.w3.org/1999/xlink">
    <title>暂无记录</title>
    <g id="页面-1" stroke="none" stroke-width="1" fill="none" fill-rule="evenodd">
        <g id="交易（连接钱包）" transform="translate(-626.000000, -835.000000)" fill-rule="nonzero">
            <g id="当前委托" transform="translate(0.000000, 660.000000)">
                <g id="暂无数据" transform="translate(614.000000, 175.000000)">
                    <g id="暂无记录" transform="translate(12.000000, 0.000000)">
                        <rect id="矩形" fill="#000000" opacity="0" x="0" y="0" width="27.0804999" height="27.3"></rect>
                        <path d="M28,22.5531961 L27.9938738,22.7667661 C27.87753,25.0306525 26.1420681,26.826602 24.0170327,26.8333333 L24.0170327,26.8333333 L2.33333333,26.8333333 L2.33333333,23.3860493 L5.86351649,23.3860493 L5.86351649,1.84903614 C5.86602413,0.828881253 7.13708715,0.002505402 8.15815403,0 L8.15815403,0 L21,0 L28,5.83333333 L28,22.5531961 Z" id="形状结合" fill="#404347"></path>
                        <path d="M1.86490169,26.864702 L1.55162296,26.864702 C0.695500495,26.8627211 0.00196495458,26.1635641 0,25.3005024 L0,10.2901422 C0.00209785389,9.12591059 0.937783236,8.18264104 2.09265412,8.18052618 L5.87915735,8.18052618 L5.87915735,22.832559 C5.86466024,25.0590805 4.07355937,26.8581624 1.86490169,26.864702 Z" id="路径" fill="#71757A"></path>
                        <path d="M21,0 L21,4.92882664 C21.0011309,5.42797135 21.4746877,5.83236764 22.059197,5.83333333 L28,5.83333333 L21,0 Z" id="路径" fill="#71757A"></path>
                        <path d="M24.0911994,16.3333333 L9.74213392,16.3333333 C9.51641351,16.3332397 9.33333333,16.2015708 9.33333333,16.0391201 L9.33333333,15.4608799 C9.33333333,15.2984292 9.51641352,15.1667603 9.74213392,15.1666667 L24.0911994,15.1666667 C24.3169198,15.1667603 24.5,15.2984292 24.5,15.4608799 L24.5,16.0391201 C24.5,16.2015708 24.3169198,16.3332397 24.0911994,16.3333333 L24.0911994,16.3333333 Z" id="路径" fill="#71757A"></path>
                        <path d="M17.0147523,21 L9.80234293,21 C9.54337795,20.9999063 9.33348263,20.8682374 9.33333333,20.7057868 L9.33333333,20.1275466 C9.33348263,19.9650959 9.54337795,19.833427 9.80234293,19.8333333 L17.0309904,19.8333333 C17.2899554,19.833427 17.4998507,19.9650959 17.5,20.1275466 L17.5,20.7057868 C17.4866659,20.8686214 17.2746328,20.9971804 17.0147523,21 L17.0147523,21 Z" id="路径" fill="#71757A"></path>
                        <path d="M24.0911994,11.6666667 L9.74213392,11.6666667 C9.51641351,11.666573 9.33333333,11.5349041 9.33333333,11.3724534 L9.33333333,10.7942132 C9.33333333,10.6317626 9.51641352,10.5000937 9.74213392,10.5 L24.0911994,10.5 C24.3169198,10.5000937 24.5,10.6317626 24.5,10.7942132 L24.5,11.3724534 C24.5,11.5349041 24.3169198,11.666573 24.0911994,11.6666667 L24.0911994,11.6666667 Z" id="路径" fill="#71757A"></path>
                    </g>
                </g>
            </g>
        </g>
    </g>
</svg>