<?xml version="1.0" encoding="UTF-8"?>
<svg width="13px" height="14px" viewBox="0 0 13 14" version="1.1" xmlns="http://www.w3.org/2000/svg" xmlns:xlink="http://www.w3.org/1999/xlink">
    <title>火热备份</title>
    <g id="页面-1" stroke="none" stroke-width="1" fill="none" fill-rule="evenodd">
        <g id="交易大赛" transform="translate(-733.000000, -360.000000)" fill-rule="nonzero">
            <g id="编组-9备份-4" transform="translate(240.000000, 332.000000)">
                <g id="编组-13" transform="translate(485.000000, 21.000000)">
                    <g id="编组-12" transform="translate(8.000000, 4.000000)">
                        <g id="火热备份" transform="translate(0.000000, 3.000000)">
                            <path d="M4.68908623,0.519880531 C4.58747685,1.64788053 4.12108623,3.75828678 2.18508623,5.79188053 C2.24267998,5.04148991 2.0738831,4.48308366 1.88747685,4.10948991 C1.78427373,3.90388053 1.48028935,3.94388053 1.43627373,4.16948991 C1.34667998,4.62948991 1.11467998,5.34228678 0.536273726,6.32228678 C-0.582913774,8.21908366 -0.441320024,13.5078805 5.86027373,13.5078805 C12.1618675,13.5078805 12.5858831,7.99508366 11.69068,5.75748991 C11.10668,4.29748991 10.22268,3.37428678 9.67786748,2.90867741 C9.49947685,2.75588053 9.22267998,2.87828678 9.21547685,3.11267741 C9.20108623,3.58867741 9.10108623,4.25908366 8.69867998,4.70867741 C8.68827373,3.88388053 8.10267998,1.45267741 5.53547685,0.0702867811 C5.17147685,-0.125713219 4.72667998,0.108677406 4.6890706,0.519880531 L4.68908623,0.519880531 Z" id="路径" fill="#FF7100"></path>
                            <path d="M8.96349248,9.44308366 C8.89786748,8.73908366 8.01547685,6.84067741 5.64108623,5.59267741 C5.47547685,5.50548991 5.28027373,5.64148991 5.30508623,5.82708366 C5.40267998,6.55908366 5.50747685,8.02228678 4.92908623,8.71348991 C4.99227373,8.08228678 4.6458831,7.55989616 4.35627373,7.23989616 C4.22508623,7.09588053 3.98827373,7.16708366 3.9578831,7.35989616 C3.90267998,7.70867741 3.75708623,8.23908366 3.38667998,8.89028678 C2.72908623,10.0470837 2.02747685,11.8382868 5.33308623,13.4942868 C5.50427373,13.5030837 5.67949248,13.5078805 5.86027373,13.5078805 C6.03547685,13.5078805 6.20508623,13.5030837 6.37147685,13.4942868 C8.84428935,12.5646774 9.0818831,10.7134899 8.96349248,9.44308366 Z" id="路径" fill="#FFAF10"></path>
                        </g>
                    </g>
                </g>
            </g>
        </g>
    </g>
</svg>