<?xml version="1.0" encoding="UTF-8"?>
<svg width="15px" height="15px" viewBox="0 0 15 15" version="1.1" xmlns="http://www.w3.org/2000/svg" xmlns:xlink="http://www.w3.org/1999/xlink">
    <title>形状结合</title>
    <g id="页面-1" stroke="none" stroke-width="1" fill="none" fill-rule="evenodd">
        <g id="弹窗" transform="translate(-3004.000000, -611.000000)" fill="#ADB1B8" fill-rule="nonzero">
            <g id="钱包" transform="translate(2989.000000, 552.000000)">
                <g id="编组-7" transform="translate(15.000000, 16.000000)">
                    <g id="在浏览器中查看" transform="translate(0.234375, 40.000000)">
                        <path d="M6.43789298,3.77481174 C6.74199446,3.77481174 6.98786374,4.02068102 6.98786374,4.3247825 C6.98786374,4.62888398 6.74199446,4.87475326 6.43789298,4.87475326 L6.43789298,4.87475326 L1.65800008,4.87475326 C1.35066348,4.87475326 1.09994151,5.11900498 1.09994151,5.41987133 L1.09994151,5.41987133 L1.09994151,15.3969879 C1.09994151,15.6978543 1.35066348,15.942106 1.65800008,15.942106 L1.65800008,15.942106 L11.7661391,15.942106 C12.0734757,15.942106 12.3241977,15.6978543 12.3241977,15.3969879 L12.3241977,15.3969879 L12.3241977,10.6785623 C12.3241977,10.3744608 12.5700669,10.1285916 12.8741684,10.1285916 C13.1782699,10.1285916 13.4241392,10.3744608 13.4241392,10.6785623 L13.4241392,10.6785623 L13.4241392,15.3969879 C13.4241392,16.3044396 12.6800611,17.0420475 11.7661391,17.0420475 L11.7661391,17.0420475 L1.65800008,17.0420475 C0.744078084,17.0420475 0,16.3028221 0,15.3969879 L0,15.3969879 L0,5.41987133 C0,4.51241958 0.744078084,3.77481174 1.65800008,3.77481174 L1.65800008,3.77481174 Z M13.0456299,3 C13.5729548,3 14.0016085,3.42703612 13.9999955,3.9511259 L13.9999955,3.9511259 L13.9999955,7.59710851 C13.9999955,7.90120999 13.7541216,8.14707927 13.4500201,8.14707927 C13.1459187,8.14707927 12.9000494,7.90120999 12.9000494,7.59710851 L12.9000494,7.59710851 L12.9000494,4.8521074 L5.29751244,12.4546443 C5.19075341,12.5630209 5.0500256,12.6164005 4.90929779,12.6164005 C4.76856998,12.6164005 4.62784217,12.5614034 4.52108314,12.4546443 C4.30594752,12.2395087 4.30594752,11.8917331 4.52108314,11.6765975 L4.52108314,11.6765975 L12.0961215,4.09994151 L9.35112044,4.09994151 C9.04701896,4.09994151 8.80114968,3.85407224 8.80114968,3.54997076 C8.80114968,3.24586928 9.04701896,3 9.35112044,3 L9.35112044,3 Z" id="形状结合"></path>
                    </g>
                </g>
            </g>
        </g>
    </g>
</svg>