<?xml version="1.0" encoding="UTF-8"?>
<svg width="12px" height="12px" viewBox="0 0 12 12" version="1.1" xmlns="http://www.w3.org/2000/svg" xmlns:xlink="http://www.w3.org/1999/xlink">
    <title>形状结合备份 140</title>
    <g id="页面-1" stroke="none" stroke-width="1" fill="none" fill-rule="evenodd">
        <g id="弹窗" transform="translate(-530.000000, -302.000000)" fill="#404347">
            <g id="仓位模式" transform="translate(510.000000, 76.000000)">
                <g id="编组-10备份" transform="translate(20.000000, 220.000000)">
                    <path d="M6,6 C9.3137085,6 12,8.6862915 12,12 C12,15.3137085 9.3137085,18 6,18 C2.6862915,18 4.05812251e-16,15.3137085 0,12 C-4.05812251e-16,8.6862915 2.6862915,6 6,6 Z M6,7 C3.23857625,7 1,9.23857625 1,12 C1,14.7614237 3.23857625,17 6,17 C8.76142375,17 11,14.7614237 11,12 C11,9.23857625 8.76142375,7 6,7 Z" id="形状结合备份-140"></path>
                </g>
            </g>
        </g>
    </g>
</svg>