<?xml version="1.0" encoding="UTF-8"?>
<svg width="16px" height="16px" viewBox="0 0 16 16" version="1.1" xmlns="http://www.w3.org/2000/svg" xmlns:xlink="http://www.w3.org/1999/xlink">
    <title>形状</title>
    <g id="页面-1" stroke="none" stroke-width="1" fill="none" fill-rule="evenodd">
        <g id="挖矿（流动性挖矿）" transform="translate(-1408.000000, -113.000000)" fill="#71757A" fill-rule="nonzero">
            <g id="编组-9备份" transform="translate(1080.000000, 92.000000)">
                <path d="M341.999978,36.9993484 L330,36.9993484 C328.895505,36.9993484 328,36.1038787 328,34.999432 L328,22.9999163 C328,21.8954697 328.895505,21 330,21 L342,21 C343.104495,21 344,21.8954697 344,22.9999163 L344,34.999432 C344,36.1038787 343.104495,36.9993484 341.999978,36.9993484 Z M343.000007,22.9999163 C343.000007,22.447693 342.552254,21.9999406 341.999993,21.9999406 L330.000004,21.9999406 C329.447746,21.9999406 328.999993,22.447693 328.999993,22.9999163 L328.999993,34.999432 C328.999993,35.551673 329.447746,35.9994078 330.000004,35.9994078 L341.999993,35.9994078 C342.552272,35.9994078 343.000007,35.5516554 343.000007,34.999432 L343.000007,22.9999163 Z M341.500008,28.4996951 C341.224107,28.4996951 341.000002,28.276083 341.000002,27.9997072 L341.015624,24.7127491 L337.622064,28.1061506 L336.915036,27.3991582 L340.314443,23.9998745 L337.000011,23.9998745 C336.723635,23.9998745 336.500023,23.7762625 336.500023,23.4998866 C336.500023,23.2235108 336.723635,22.9999163 337.000011,22.9999163 L341.485831,22.9999163 C341.625489,22.9999163 341.751446,23.0575409 341.842285,23.1503178 C341.938972,23.2323341 341.999978,23.3519684 341.999978,23.4999042 L341.999978,27.9997072 C341.999978,28.2760654 341.776366,28.4996951 341.49999,28.4996951 L341.500008,28.4996951 Z M335.000004,34.999432 L330.514169,34.999432 C330.374511,34.999432 330.248554,34.9418427 330.157715,34.8490658 C330.061028,34.7670143 330.000004,34.6478731 330.000004,34.4994794 L330.000004,29.9996236 C330.000004,29.7232653 330.224127,29.4996357 330.499992,29.4996357 C330.776351,29.4996357 331.000004,29.7232653 331.000004,29.9996236 L330.984376,33.2870924 L334.377919,29.8931978 L335.08544,30.6001726 L331.685557,33.9994562 L334.999989,33.9994562 C335.276347,33.9994562 335.499977,34.2230683 335.499977,34.4994441 C335.499977,34.7758024 335.276365,34.999432 335.000004,34.999432 L335.000004,34.999432 Z" id="形状"></path>
            </g>
        </g>
    </g>
</svg>