<?xml version="1.0" encoding="UTF-8"?>
<svg width="14px" height="12px" viewBox="0 0 14 12" version="1.1" xmlns="http://www.w3.org/2000/svg" xmlns:xlink="http://www.w3.org/1999/xlink">
    <title>路径</title>
    <g id="页面-1" stroke="none" stroke-width="1" fill="none" fill-rule="evenodd">
        <g id="弹窗" transform="translate(-1044.000000, -921.000000)" fill="#f7a600" fill-rule="nonzero">
            <g id="分享" transform="translate(850.000000, 477.000000)">
                <g id="盈亏备份" transform="translate(194.000000, 441.000000)">
                    <path d="M6.79117711,6.12746187 L6.79117711,6.68318867 L6.33334495,6.60379912 C4.5020163,6.36563048 2.89960371,5.49234552 1.52610722,4.14272331 L0.839358962,3.42821742 L0.686748259,3.90455467 C0.305221461,5.01600827 0.534137529,6.28624093 1.29719113,7.08013637 C1.67871792,7.55647362 1.60241256,7.55647362 0.915664327,7.31830498 C0.686748231,7.23891544 0.457832163,7.15952589 0.457832163,7.23891544 C0.381526798,7.31830498 0.610442894,8.27097949 0.839358962,8.66792722 C1.06827506,9.22365402 1.60241256,9.69999128 2.21285545,10.0175494 L2.74699298,10.255718 L2.13655011,10.255718 C1.60241259,10.255718 1.52610722,10.255718 1.60241259,10.4938867 C1.83132868,11.2083926 2.59438228,11.9228984 3.51004661,12.2404566 L4.12048947,12.4786252 L3.58635197,12.7961834 C2.74699301,13.2725207 1.83132868,13.5900788 0.839358962,13.5900788 C0.381526798,13.5900788 0,13.6694684 0,13.6694684 C0,13.7488579 1.22088576,14.3839743 1.98393938,14.6221429 C4.1204895,15.3366488 6.71487175,15.0190906 8.62250577,13.8282475 C9.99600226,12.9549625 11.3694987,11.2877821 11.9799416,9.69999128 C12.3614684,8.82670632 12.6666899,7.23891547 12.6666899,6.52440957 C12.6666899,6.04807232 12.6666899,5.96868277 13.2771328,5.41295597 C13.5823542,5.09539781 13.9638811,4.69845008 13.963881,4.61906056 C14.0401864,4.38089192 14.0401864,4.38089192 13.5060489,4.61906056 C12.6666899,4.93661872 12.5140792,4.8572292 12.9719113,4.38089192 C13.2771328,4.06333376 13.6586596,3.42821742 13.6586596,3.26943832 C13.6586596,3.26943832 13.5060489,3.26943832 13.3534381,3.34882787 C13.2008274,3.42821742 12.7429952,3.58699651 12.4377738,3.74577557 L11.9036363,3.90455467 L11.3694987,3.58699651 C11.0642773,3.42821742 10.6827505,3.1900488 10.5301398,3.11065926 C9.99600226,2.95188016 9.23294866,2.95188016 8.7751165,3.1900488 C7.55423074,3.58699651 6.71487175,4.77783966 6.79117711,6.12746187 L6.79117711,6.12746187 Z" id="路径"></path>
                </g>
            </g>
        </g>
    </g>
</svg>