<?xml version="1.0" encoding="UTF-8"?>
<svg width="30px" height="30px" viewBox="0 0 30 30" version="1.1" xmlns="http://www.w3.org/2000/svg" xmlns:xlink="http://www.w3.org/1999/xlink">
    <title>编组 22</title>
    <g id="页面-1" stroke="none" stroke-width="1" fill="none" fill-rule="evenodd">
        <g id="h5-首页" transform="translate(-37.000000, -3320.000000)" fill="#F8F8F8" fill-rule="nonzero">
            <g id="编组-11" transform="translate(10.000000, 3019.000000)">
                <g id="编组-22" transform="translate(27.000000, 301.000000)">
                    <path d="M15.2762612,12.1274619 L15.2762612,12.6831887 L14.7857267,12.6037991 C12.8235889,12.3656305 11.1067183,11.4923455 9.63511488,10.1427233 L8.89931317,9.42821742 L8.73580171,9.90455467 C8.32702299,11.0160083 8.57229021,12.2862409 9.38984763,13.0801364 C9.79862635,13.5564736 9.7168706,13.5564736 8.98106892,13.318305 C8.73580168,13.2389154 8.49053446,13.1595259 8.49053446,13.2389154 C8.40877871,13.318305 8.65404596,14.2709795 8.89931317,14.6679272 C9.14458042,15.223654 9.7168706,15.6999913 10.3709166,16.0175494 L10.9432068,16.255718 L10.2891608,16.255718 C9.71687063,16.255718 9.63511488,16.255718 9.71687063,16.4938867 C9.96213787,17.2083926 10.7796953,17.9228984 11.7607642,18.2404566 L12.4148101,18.4786252 L11.84252,18.7961834 C10.9432068,19.2725207 9.96213787,19.5900788 8.89931317,19.5900788 C8.40877871,19.5900788 8,19.6694684 8,19.6694684 C8,19.7488579 9.30809189,20.3839743 10.1256493,20.6221429 C12.4148102,21.3366488 15.1945054,21.0190906 17.238399,19.8282475 C18.7100024,18.9549625 20.1816058,17.2877821 20.8356518,15.6999913 C21.2444305,14.8267063 21.5714535,13.2389155 21.5714535,12.5244096 C21.5714535,12.0480723 21.5714535,11.9686828 22.2254994,11.412956 C22.5525224,11.0953978 22.9613011,10.6984501 22.9613011,10.6190606 C23.0430568,10.3808919 23.0430568,10.3808919 22.4707666,10.6190606 C21.5714535,10.9366187 21.407942,10.8572292 21.8984764,10.3808919 C22.2254994,10.0633338 22.6342781,9.42821742 22.6342781,9.26943832 C22.6342781,9.26943832 22.4707666,9.26943832 22.3072551,9.34882787 C22.1437436,9.42821742 21.6532092,9.58699651 21.3261862,9.74577557 L20.753896,9.90455467 L20.1816058,9.58699651 C19.8545828,9.42821742 19.4458041,9.1900488 19.2822926,9.11065926 C18.7100024,8.95188016 17.892445,8.95188016 17.4019105,9.1900488 C16.0938186,9.58699651 15.1945054,10.7778397 15.2762612,12.1274619 L15.2762612,12.1274619 Z" id="路径"></path>
                </g>
            </g>
        </g>
    </g>
</svg>