<?xml version="1.0" encoding="UTF-8"?>
<svg width="24px" height="24px" viewBox="0 0 24 24" version="1.1" xmlns="http://www.w3.org/2000/svg" xmlns:xlink="http://www.w3.org/1999/xlink">
    <title>编组 31</title>
    <g id="页面-1" stroke="none" stroke-width="1" fill="none" fill-rule="evenodd">
        <g id="首页-pc-改版" transform="translate(-241.000000, -3559.000000)" fill="#17181F" fill-rule="nonzero">
            <g id="底部" transform="translate(0.000000, 3415.000000)">
                <g id="左侧" transform="translate(241.000000, 62.000000)">
                    <g id="编组-31" transform="translate(0.000000, 82.000000)">
                        <path d="M11.7328119,9.60621822 L11.7328119,10.0693239 L11.3463302,10.0031659 C9.80040337,9.80469207 8.44771742,9.0769546 7.28827233,7.95226942 L6.70854977,7.35684785 L6.57972256,7.75379556 C6.25765448,8.68000689 6.45089532,9.73853411 7.09503147,10.4001136 C7.41709955,10.7970614 7.35268593,10.7970614 6.77296339,10.5985875 C6.57972253,10.5324295 6.3864817,10.4662716 6.3864817,10.5324295 C6.32206808,10.5985875 6.51530894,11.3924829 6.70854977,11.7232727 C6.90179063,12.1863784 7.35268593,12.5833261 7.86799486,12.8479579 L8.31889018,13.0464317 L7.80358127,13.0464317 C7.35268595,13.0464317 7.28827233,13.0464317 7.35268595,13.2449056 C7.54592681,13.8403272 8.19006296,14.4357487 8.96302636,14.7003805 L9.47833527,14.8988544 L9.02743998,15.1634862 C8.3188902,15.5604339 7.54592681,15.8250657 6.70854977,15.8250657 C6.32206808,15.8250657 6,15.8912237 6,15.8912237 C6,15.9573816 7.03061785,16.4866452 7.67475403,16.6851191 C9.47833529,17.2805407 11.6683982,17.0159088 13.2787386,16.0235395 C14.4381837,15.2958021 15.5976288,13.9064851 16.1129378,12.5833261 C16.4350058,11.8555886 16.6926603,10.5324296 16.6926603,9.93700798 C16.6926603,9.54006027 16.6926603,9.47390231 17.2079692,9.01079664 C17.4656237,8.74616485 17.7876918,8.41537507 17.7876918,8.34921713 C17.8521054,8.15074327 17.8521054,8.15074327 17.4012101,8.34921713 C16.6926603,8.61384893 16.5638331,8.547691 16.9503148,8.15074327 C17.2079692,7.88611147 17.5300373,7.35684785 17.5300373,7.22453193 C17.5300373,7.22453193 17.4012101,7.22453193 17.2723828,7.29068989 C17.1435556,7.35684785 16.7570739,7.48916376 16.4994194,7.62147964 L16.0485241,7.75379556 L15.5976288,7.48916376 C15.3399744,7.35684785 15.0179063,7.158374 14.889079,7.09221605 C14.4381837,6.95990014 13.7940476,6.95990014 13.4075659,7.158374 C12.376948,7.48916376 11.6683982,8.48153305 11.7328119,9.60621822 L11.7328119,9.60621822 Z" id="路径"></path>
                    </g>
                </g>
            </g>
        </g>
    </g>
</svg>